<svg id="Layer_1" data-name="Layer 1" xmlns="http://www.w3.org/2000/svg" viewBox="0 0 78 78"><defs><style>.cls-1{fill:#ee3e54;}.cls-2{fill:#f1bc19;}.cls-3{fill:#f9aa21;}.cls-4{fill:#ee2049;}.cls-5{fill:#fff;}.cls-6{fill:#0caa58;}</style></defs><title>guestion</title><g id="surface50727"><path class="cls-1" d="M13,27a2,2,0,1,0,2,2A2,2,0,0,0,13,27Z" transform="translate(-11 -11)"/><path class="cls-2" d="M77,12a1,1,0,1,0,1,1A1,1,0,0,0,77,12Z" transform="translate(-11 -11)"/><path class="cls-3" d="M50,14A37,37,0,1,0,87,51,37,37,0,0,0,50,14Z" transform="translate(-11 -11)"/><path class="cls-3" d="M83,11a4,4,0,1,0,4,4A4,4,0,0,0,83,11Z" transform="translate(-11 -11)"/><path class="cls-1" d="M87,22a2,2,0,1,0,2,2A2,2,0,0,0,87,22Z" transform="translate(-11 -11)"/><path class="cls-4" d="M81,74a2,2,0,1,0,2,2A2,2,0,0,0,81,74ZM15,59a4,4,0,1,0,4,4A4,4,0,0,0,15,59Z" transform="translate(-11 -11)"/><path class="cls-1" d="M25,85a2,2,0,1,0,2,2A2,2,0,0,0,25,85Z" transform="translate(-11 -11)"/><path class="cls-5" d="M18.5,51A2.5,2.5,0,1,0,21,53.5,2.5,2.5,0,0,0,18.5,51Z" transform="translate(-11 -11)"/><path class="cls-2" d="M21,66a1,1,0,1,0,1,1A1,1,0,0,0,21,66Z" transform="translate(-11 -11)"/><path class="cls-5" d="M80,33a1,1,0,1,0,1,1A1,1,0,0,0,80,33Z" transform="translate(-11 -11)"/><path class="cls-6" d="M44.87,60V58.2c0-6,4.08-9.39,7.68-12.35,3-2.5,5.88-4.85,5.88-8.39S55.36,30,50.21,30s-8.38,2.88-9,7.56H33.74c.62-8.7,7.06-14.07,17-14.07S67.3,29.09,67.3,37.12c0,5.14-2.37,8.93-7.69,12.31a11,11,0,0,0-5.29,9.5V60Z" transform="translate(-11 -11)"/><path class="cls-6" d="M49.6,78.12a5.63,5.63,0,1,1,5.62-5.63A5.64,5.64,0,0,1,49.6,78.12Z" transform="translate(-11 -11)"/></g></svg>