<?xml version="1.0" encoding="utf-8"?>
<!-- Generator: Adobe Illustrator 22.0.0, SVG Export Plug-In . SVG Version: 6.00 Build 0)  -->
<svg version="1.1" id="Layer_1" xmlns="http://www.w3.org/2000/svg" xmlns:xlink="http://www.w3.org/1999/xlink" x="0px" y="0px"
	 viewBox="0 0 100 100" style="enable-background:new 0 0 100 100;" xml:space="preserve">
<style type="text/css">
	.st0{fill:#EE3E54;}
	.st1{fill:#EE2049;}
	.st2{fill:#117FCD;}
	.st3{fill:#FFFFFF;}
</style>
<g id="surface50727">
	<path class="st0" d="M13,27c-1.1,0-2,0.9-2,2s0.9,2,2,2s2-0.9,2-2S14.1,27,13,27z"/>
	<path class="st1" d="M77,12c-0.6,0-1,0.4-1,1s0.4,1,1,1s1-0.4,1-1S77.6,12,77,12z"/>
	<path class="st2" d="M50,14c-20.4,0-37,16.6-37,37s16.6,37,37,37s37-16.6,37-37S70.4,14,50,14z"/>
	<path class="st2" d="M83,11c-2.2,0-4,1.8-4,4s1.8,4,4,4s4-1.8,4-4S85.2,11,83,11z"/>
	<path class="st0" d="M87,22c-1.1,0-2,0.9-2,2s0.9,2,2,2s2-0.9,2-2S88.1,22,87,22z"/>
	<path class="st1" d="M81,74c-1.1,0-2,0.9-2,2s0.9,2,2,2s2-0.9,2-2S82.1,74,81,74z M15,59c-2.2,0-4,1.8-4,4s1.8,4,4,4s4-1.8,4-4
		S17.2,59,15,59z"/>
	<path class="st0" d="M25,85c-1.1,0-2,0.9-2,2s0.9,2,2,2s2-0.9,2-2S26.1,85,25,85z"/>
	<path class="st3" d="M18.5,51c-1.4,0-2.5,1.1-2.5,2.5s1.1,2.5,2.5,2.5s2.5-1.1,2.5-2.5S19.9,51,18.5,51z"/>
	<path class="st1" d="M21,66c-0.6,0-1,0.4-1,1s0.4,1,1,1s1-0.4,1-1S21.6,66,21,66z"/>
	<path class="st3" d="M80,33c-0.6,0-1,0.4-1,1s0.4,1,1,1s1-0.4,1-1S80.6,33,80,33z"/>
	<path class="st3" d="M44.9,60v-1.8c0-6,4.1-9.4,7.7-12.3c3-2.5,5.9-4.9,5.9-8.4c0-3.7-3.1-7.5-8.2-7.5c-5,0-8.4,2.9-9,7.6h-7.5
		c0.6-8.7,7.1-14.1,17-14.1c9.8,0,16.6,5.6,16.6,13.6c0,5.1-2.4,8.9-7.7,12.3c-4.6,2.9-5.3,7.2-5.3,9.5V60H44.9z"/>
	<path class="st3" d="M49.6,78.1c-3.1,0-5.6-2.5-5.6-5.6s2.5-5.6,5.6-5.6c3.1,0,5.6,2.5,5.6,5.6S52.7,78.1,49.6,78.1z"/>
</g>
</svg>
